<svg xmlns="http://www.w3.org/2000/svg" width="8.763" height="8.763" viewBox="0 0 8.763 8.763"><g transform="translate(0 0)"><g fill="none"><path d="M4.381,0A4.381,4.381,0,1,1,0,4.381,4.381,4.381,0,0,1,4.381,0Z" stroke="none"/><path d="M 4.38134765625 0.7299976348876953 C 2.367987632751465 0.7299976348876953 0.7299976348876953 2.367987632751465 0.7299976348876953 4.38134765625 C 0.7299976348876953 6.394707679748535 2.367987632751465 8.032697677612305 4.38134765625 8.032697677612305 C 6.394707679748535 8.032697677612305 8.032697677612305 6.394707679748535 8.032697677612305 4.38134765625 C 8.032697677612305 2.367987632751465 6.394707679748535 0.7299976348876953 4.38134765625 0.7299976348876953 M 4.38134765625 -1.9073486328125e-06 C 6.801097869873047 -1.9073486328125e-06 8.762697219848633 1.961597442626953 8.762697219848633 4.38134765625 C 8.762697219848633 6.801097869873047 6.801097869873047 8.762697219848633 4.38134765625 8.762697219848633 C 1.961597442626953 8.762697219848633 -1.9073486328125e-06 6.801097869873047 -1.9073486328125e-06 4.38134765625 C -1.9073486328125e-06 1.961597442626953 1.961597442626953 -1.9073486328125e-06 4.38134765625 -1.9073486328125e-06 Z" stroke="none" fill="#f8a085"/></g><g transform="translate(3 3)"><line x2="3" y2="3" fill="none" stroke="#f8a085" stroke-width="0.73"/><line x2="3" y2="3" transform="translate(3) rotate(90)" fill="none" stroke="#f8a085" stroke-width="0.73"/></g></g></svg>