<svg width="10" height="10" viewBox="0 0 10 10" fill="none" xmlns="http://www.w3.org/2000/svg">
<g clip-path="url(#clip0)">
<path d="M2.05376 0.996236C1.91961 1.11455 1.77379 1.21889 1.6185 1.30765V1.30765L1.36957 1.55654L2.30265 2.42711L2.55159 2.17822C2.67546 2.1157 2.73795 1.99184 2.86298 1.92932L2.05263 0.996236H2.05376ZM0.685413 2.42711L0.62288 2.48963C0.57494 2.60129 0.512242 2.70603 0.436482 2.80104V2.86356C0.436482 2.92607 0.373984 2.98744 0.373984 3.04995L1.55597 3.48523C1.63363 3.24615 1.73811 3.01663 1.8674 2.80104L0.685413 2.42828V2.42711ZM0.0637207 4.29329V4.47968V5.16386L1.30824 5.10134C1.29807 4.85081 1.31905 4.6 1.37073 4.35465L0.0637207 4.29214V4.29329ZM0.126254 6.28449C0.188768 6.47088 0.250102 6.71978 0.312617 6.90616V6.96868L1.4321 6.40837C1.32197 6.19113 1.23841 5.96141 1.1832 5.72418L0.125088 6.28449H0.126254ZM1.99243 7.28009L0.996807 8.0268L1.05934 8.08931L1.2457 8.27569C1.30822 8.27569 1.30821 8.33821 1.36957 8.33821L2.17995 7.40512C2.05608 7.28125 1.93104 7.21874 1.86853 7.09371C2.11743 7.40513 2.05494 7.34261 1.99243 7.28009ZM3.11187 8.27569L2.49022 9.33381C2.57551 9.41159 2.6862 9.45563 2.80161 9.45768C2.91501 9.52639 3.04244 9.56873 3.17441 9.58156L3.54717 8.39956C3.54717 8.46207 3.36078 8.39956 3.11187 8.27569V8.27569ZM4.54279 8.71099L4.41889 9.95549C4.74784 10.0177 5.08556 10.0177 5.41451 9.95549L5.29064 8.71099C5.04271 8.7421 4.79185 8.7421 4.54392 8.71099H4.54279ZM6.03616 8.5871L6.40896 9.7691C6.73911 9.69944 7.05477 9.57332 7.34205 9.39633L6.78172 8.27686C6.47031 8.40073 6.22142 8.52576 6.03503 8.58827L6.03616 8.5871ZM7.83984 7.34261C7.71597 7.46648 7.59095 7.65403 7.46708 7.7779L7.34318 7.90177L8.15356 8.83485C8.21608 8.77234 8.27745 8.71099 8.33996 8.71099C8.52296 8.5401 8.68961 8.35251 8.83775 8.15066L7.84213 7.34029L7.83984 7.34261ZM8.52403 6.03559C8.46151 6.28449 8.33765 6.5334 8.27513 6.71978L9.39458 7.28009C9.4571 7.15622 9.51847 6.96869 9.58098 6.84481V6.7823V6.71516C9.58098 6.65264 9.64348 6.52876 9.64348 6.46624L8.52403 6.03097V6.03559ZM8.64789 4.6047C8.67902 4.85263 8.67902 5.10348 8.64789 5.3514L9.89237 5.47529V4.91496V4.85245V4.78993V4.54103L8.64789 4.60355V4.6047ZM8.2126 3.17382C8.35324 3.38325 8.45846 3.61441 8.52403 3.85801L9.70601 3.48523C9.6435 3.29885 9.58213 3.17383 9.51961 2.98744C9.4571 2.86357 9.39576 2.80104 9.33325 2.67601L8.21377 3.17382H8.2126ZM8.0262 1.05875L7.27951 2.05435C7.45861 2.18367 7.62526 2.32938 7.77731 2.48963L7.83984 2.55215L8.77292 1.74178V1.67926C8.50526 1.49568 8.25526 1.28755 8.0262 1.05759V1.05875ZM6.22256 0.188181L5.91113 1.37016C6.15129 1.41508 6.38244 1.49917 6.59532 1.61906L7.15565 0.499592C6.85459 0.36801 6.5423 0.263788 6.22256 0.188181V0.188181ZM4.23136 0.0642982L4.41776 1.3088C4.66311 1.25713 4.91392 1.23615 5.16445 1.2463L5.22694 0.00178269C4.89389 -0.00655482 4.56076 0.0143646 4.23136 0.0642982V0.0642982ZM2.36519 0.748488L2.98684 1.80661C3.19629 1.66599 3.42744 1.56078 3.67103 1.49519L3.23574 0.313212C3.08601 0.363907 2.9405 0.42622 2.80048 0.499592C2.6614 0.592658 2.51594 0.675826 2.36519 0.748488V0.748488Z" fill="#8997a5"/>
<path d="M4.97836 0C3.65923 0.00366595 2.3952 0.529311 1.46244 1.46207C0.529675 2.39484 0.00403048 3.65889 0.000364536 4.97801C-0.00968868 5.18718 0.0113626 5.39668 0.0628623 5.59967H1.30738C1.25588 5.39668 1.23479 5.18718 1.24484 4.97801C1.23718 4.48825 1.33295 4.00237 1.52586 3.55213C1.71876 3.10189 2.00446 2.69743 2.36433 2.36513C2.90081 1.81252 3.59733 1.44239 4.35553 1.30701V4.35517H2.48936V5.59967H5.60001V0.0625155C5.35111 0.0625155 5.16474 0 4.97836 0V0Z" fill="#091440"/>
</g>
<defs>
<clipPath id="clip0">
<rect width="9.89118" height="10" fill="white"/>
</clipPath>
</defs>
</svg>
